<svg width="32" height="32" viewBox="0 0 32 32" fill="none" xmlns="http://www.w3.org/2000/svg">
<path d="M5 30V28.4118C5 24.026 8.51776 20.4706 12.8571 20.4706H19.1429C23.4822 20.4706 27 24.026 27 28.4118V30M22.2857 9.35294C22.2857 12.8616 19.4715 15.7059 16 15.7059C12.5285 15.7059 9.71429 12.8616 9.71429 9.35294C9.71429 5.84431 12.5285 3 16 3C19.4715 3 22.2857 5.84431 22.2857 9.35294Z" stroke="#fff" stroke-width="2" stroke-linecap="round" stroke-linejoin="round"/>
<ellipse cx="16" cy="9.5" rx="6" ry="5.5" fill=""/>
<path d="M5 30H27" stroke="#fff" stroke-width="2" stroke-linecap="round"/>
<path d="M6.43176 28.5216C6.43176 28.075 6.5196 27.6227 6.73341 27.2289C6.86832 26.9803 7.04386 26.7457 7.18588 26.4987C7.32826 26.2511 7.38434 26.0059 7.48752 25.7422C7.64114 25.3496 7.92337 25.0106 8.15545 24.6625C8.47752 24.1794 9.01614 23.8826 9.55834 23.6953C10.6595 23.3149 11.7934 23.07 12.8932 22.685C13.9577 22.3125 15.1592 22.4456 16.2711 22.4456C16.5983 22.4456 16.9455 22.4149 17.2694 22.4672C17.627 22.5248 17.9911 22.4924 18.3443 22.5534C18.9482 22.6575 19.5823 22.648 20.1806 22.7712C20.7781 22.8942 21.2106 23.0763 21.6864 23.4463C22.0921 23.7619 22.5108 24.0448 22.9265 24.3417C23.4913 24.7451 23.7581 25.3296 24.1259 25.8954C24.4001 26.3173 24.7402 26.8481 24.7914 27.3605C24.8065 27.5117 24.9004 27.6297 24.8752 27.7891C24.8469 27.9684 24.5435 28.0014 24.4108 28.038C24.2214 28.0903 24.0091 28.0151 23.8171 28.05C23.7663 28.0592 23.4129 28.1209 23.5417 28.196C23.6813 28.2774 23.9661 28.2631 24.1187 28.2631C24.3417 28.2631 24.5548 28.3062 24.7794 28.3062C25.1751 28.3062 24.5528 28.2926 24.4443 28.2846C23.8828 28.2433 23.3172 28.1769 22.7541 28.1769C22.3298 28.1769 21.9255 28.2877 21.5068 28.3038C20.8663 28.3284 20.2207 28.3062 19.5797 28.3062C18.0377 28.3062 16.5035 28.1031 14.964 28.05C13.6897 28.0061 12.3991 28.066 11.1288 27.9518C10.3668 27.8834 9.61117 27.7891 8.84492 27.7891C8.73428 27.7891 8.60789 27.7632 8.52173 27.8321C8.1966 28.0923 8.88349 27.0554 9.19684 26.7812C9.70641 26.3353 10.3434 26.1672 10.9756 25.9696C11.8033 25.7109 12.6527 25.6302 13.5132 25.5483C15.6762 25.3423 17.8839 25.4621 20.0561 25.4621C20.6055 25.4621 21.2189 25.3974 21.763 25.5147C21.7952 25.5217 22.0913 25.6347 22.0646 25.668C22.0467 25.6903 21.8965 25.6775 21.8947 25.6775C21.5034 25.6775 21.1189 25.6389 20.7312 25.5866C18.3276 25.2625 15.8757 24.4095 13.4223 24.7295C13.0992 24.7717 12.778 24.8325 12.4551 24.8779C12.1462 24.9214 11.7585 24.9523 11.5166 25.17C11.2213 25.4358 10.9833 25.7677 10.6955 26.0438C10.3181 26.4059 9.91648 26.7569 9.56313 27.1427C9.38092 27.3416 9.14078 27.6411 9.03884 27.9016C8.99228 28.0206 8.87981 28.3127 8.78029 28.3923C8.74883 28.4175 8.74376 28.4354 8.69889 28.4354C8.34754 28.4354 9.38948 28.5787 9.74028 28.5982C11.5249 28.6978 13.3212 28.6509 15.1076 28.6509C17.409 28.6509 19.7109 28.6673 22.012 28.6294C23.012 28.6128 24.0115 28.6078 25.0117 28.6078C25.3414 28.6078 25.6711 28.6106 26.0004 28.5887C26.1613 28.5779 26.5807 28.4453 26.484 28.5743C26.265 28.8662 25.4805 28.7754 25.2128 28.7706C23.0433 28.7319 20.8794 28.5521 18.7082 28.5312C16.7045 28.5119 14.7024 28.6078 12.6993 28.6413C11.9006 28.6547 11.1019 28.6597 10.3053 28.7251C9.65714 28.7784 9.0188 28.8941 8.3733 28.9669C7.87079 29.0236 6.35219 29.0387 6.8579 29.0387C10.58 29.0387 14.3017 29.0818 18.0236 29.0818" stroke="" stroke-width="3" stroke-linecap="round"/>
</svg>
