<?xml version="1.0" encoding="UTF-8"?>
<svg xmlns="http://www.w3.org/2000/svg" viewBox="0 0 18 17.93375"><g id="Слой_2" data-name="Слой 2"><g id="Слой_1-2" data-name="Слой 1"><path d="M7.20473.17875a9.01306,9.01306,0,0,0,.45463,17.74168,1.1931,1.1931,0,0,0,1.359-1.18315v-.02492A1.18513,1.18513,0,0,0,8.00991,15.5386,6.6226,6.6226,0,0,1,9.67061,2.4033a6.82052,6.82052,0,0,1,5.959,6.88326v.60717a1.50308,1.50308,0,1,1-3.00616,0V5.38129a.60157.60157,0,0,0-.60154-.60191l-1.20156.00013a.59321.59321,0,0,0-.5681.43885,4.071,4.071,0,0,0-3.23348-.19185,4.20753,4.20753,0,0,0,1.39694,8.17726,4.16747,4.16747,0,0,0,2.61467-.93481,3.90905,3.90905,0,0,0,4.11041,1.40859,3.86836,3.86836,0,0,0,2.85851-3.86261V9.02968A8.99014,8.99014,0,0,0,7.20473.17875Zm1.176,10.6544A1.80535,1.80535,0,1,1,10.18422,9.0278,1.78446,1.78446,0,0,1,8.38075,10.83315Z" style="fill:#fff"/></g></g></svg>