<?xml version="1.0" encoding="UTF-8"?>
<svg xmlns="http://www.w3.org/2000/svg" viewBox="0 0 18 17.99598"><g id="Слой_2" data-name="Слой 2"><g id="Слой_1-2" data-name="Слой 1"><path d="M9.002,4.38405A4.61394,4.61394,0,1,0,13.616,8.998,4.60664,4.60664,0,0,0,9.002,4.38405Zm0,7.61361A2.99967,2.99967,0,1,1,12.00167,8.998,3.00512,3.00512,0,0,1,9.002,11.99766Zm5.87886-7.80234a1.07619,1.07619,0,1,1-1.07618-1.07619A1.07368,1.07368,0,0,1,14.88087,4.19532Zm3.05588,1.09224A5.32572,5.32572,0,0,0,16.4831,1.5169,5.36078,5.36078,0,0,0,12.71244.06325c-1.48578-.08433-5.9391-.08433-7.42488,0A5.35307,5.35307,0,0,0,1.5169,1.51288,5.34321,5.34321,0,0,0,.06325,5.28355c-.08433,1.48577-.08433,5.93909,0,7.42487A5.3257,5.3257,0,0,0,1.5169,16.47908a5.36758,5.36758,0,0,0,3.77066,1.45366c1.48578.08433,5.9391.08433,7.42488,0a5.32577,5.32577,0,0,0,3.77066-1.45366,5.36077,5.36077,0,0,0,1.45365-3.77066c.08433-1.48578.08433-5.93508,0-7.42086Zm-1.91946,9.01506a3.03692,3.03692,0,0,1-1.71065,1.71065c-1.18461.46983-3.99554.36141-5.30463.36141s-4.124.10441-5.30463-.36141a3.03691,3.03691,0,0,1-1.71066-1.71065c-.46982-1.18461-.3614-3.99554-.3614-5.30463s-.10441-4.124.3614-5.30463A3.03691,3.03691,0,0,1,3.69738,1.98271C4.882,1.51288,7.69292,1.6213,9.002,1.6213s4.124-.1044,5.30463.36141a3.03692,3.03692,0,0,1,1.71065,1.71065c.46983,1.18461.3614,3.99554.3614,5.30463S16.48712,13.122,16.01729,14.30262Z" style="fill:#fff"/></g></g></svg>