<?xml version="1.0" encoding="UTF-8"?>
<svg xmlns="http://www.w3.org/2000/svg" viewBox="0 0 18 18.00261"><g id="Слой_2" data-name="Слой 2"><g id="Слой_1-2" data-name="Слой 1"><path d="M17.97358,13.607l-.81746,3.54409a1.09279,1.09279,0,0,1-1.071.85156A16.10319,16.10319,0,0,1,0,1.9164,1.09219,1.09219,0,0,1,.85156.84579L4.39565.02833a1.10341,1.10341,0,0,1,1.258.6371L7.28928,4.48024a1.1004,1.1004,0,0,1-.31573,1.28157l-1.893,1.52a12.29385,12.29385,0,0,0,5.608,5.60795l1.54984-1.89159a1.09375,1.09375,0,0,1,1.28227-.31555l3.81481,1.63527A1.19911,1.19911,0,0,1,17.97358,13.607Z" style="fill:#fff"/></g></g></svg>