<?xml version="1.0" encoding="UTF-8"?>
<svg xmlns="http://www.w3.org/2000/svg" viewBox="0 0 18 18"><g id="Слой_2" data-name="Слой 2"><g id="Слой_1-2" data-name="Слой 1"><path d="M9,0a9,9,0,1,0,9,9A9,9,0,0,0,9,0Zm4.17165,6.12073c-.13544,1.42312-.72149,4.87662-1.01976,6.47056-.12615.67442-.37459.90058-.61505.92268-.52258.04812-.91953-.34537-1.42574-.67721-.79211-.51924-1.2396-.84248-2.00852-1.34917-.88857-.58554-.31254-.90726.19386-1.43347.13253-.13764,2.43533-2.23221,2.4799-2.42223a.18331.18331,0,0,0-.04188-.1591.20815.20815,0,0,0-.18635-.01814q-.11914.02707-3.79626,2.50918a1.70865,1.70865,0,0,1-.976.36051,6.42109,6.42109,0,0,1-1.399-.33107c-.56362-.1832-1.01159-.28006-.97258-.59121q.03048-.24315.66956-.49718Q8.00935,7.19025,9.3224,6.644c2.49939-1.03961,3.01874-1.22019,3.35726-1.22622a.59253.59253,0,0,1,.34875.1047.37927.37927,0,0,1,.1281.24372A1.58863,1.58863,0,0,1,13.17165,6.12073Z" style="fill:#fff"/></g></g></svg>