<?xml version="1.0" encoding="UTF-8"?>
<svg xmlns="http://www.w3.org/2000/svg" viewBox="0 0 437.94981 249.89281"><g id="Слой_2" data-name="Слой 2"><g id="Слой_1-2" data-name="Слой 1"><path d="M0,18.14281a13.00306,13.00306,0,0,1,10.97919-6.30368c2.27536-.13234,4.55113-.34149,6.82772-.35569Q45.60875,11.31,73.411,11.19735c9.5294-.052,15.78863,4.15955,20.0213,12.98651Q110.04049,58.8193,127.76559,92.915c4.91959,9.49251,11.24976,18.21047,19.77682,24.97907a26.0138,26.0138,0,0,0,6.56339,3.89345c5.27757,2.05986,9.27938.31824,12.032-4.59474,4.11261-7.34046,4.4305-15.52581,5.36753-23.5609C173.681,74.975,173.409,56.42064,169.61994,37.923c-2.26488-11.057-8.95915-16.9889-19.65452-19.18123-5.45512-1.11819-5.81879-2.51546-1.97553-6.67047a27.83783,27.83783,0,0,1,16.55846-9.06062c24.6665-3.68312,49.3861-4.20907,74.0767-.33571C250.81984,4.58808,255.41831,8.79668,256.51,23.19346c.83735,11.04268-.07963,22.21787-.20573,33.33425-.1681,14.82333-.52221,29.64887-.36573,44.4689a38.671,38.671,0,0,0,2.51783,12.89819c3.26854,8.71467,9.97115,9.99323,17.03392,4.1411,11.53344-9.5565,19.23075-22.07,27.14993-34.41879a353.68759,353.68759,0,0,0,30.13565-59.31724C337.199,13.29754,339.171,12.1301,350.85253,12.04018c22.95332-.17668,45.9052-.55159,68.8586-.681a36.85122,36.85122,0,0,1,10.50353,1.37843c6.54459,1.9309,8.59482,5.63525,7.42261,12.33-1.80811,10.32685-6.58487,19.51444-12.4329,27.89394-14.9163,21.3732-30.42176,42.33478-45.64114,63.49727-3.40726,4.73784-6.91515,9.446-9.83552,14.48174-4.98841,8.60171-4.20679,16.28425,2.73306,23.43677,10.02182,10.329,20.5278,20.1862,30.68974,30.38171,11.08386,11.12046,21.67761,22.68468,29.7265,36.28464a37.601,37.601,0,0,1,3.85224,8.94019c3.083,11.061-2.26543,17.04037-13.00867,18.10882-9.61944.95669-19.35555.76966-29.042,1.01608-12.54036.31913-25.08237.77227-37.624.784a42.44493,42.44493,0,0,1-28.20441-10.69032c-8.67672-7.53741-16.34673-16.23533-24.43672-24.446-5.89236-5.98029-11.68881-12.05715-17.6744-17.942a22.96548,22.96548,0,0,0-5.63395-3.821c-5.29477-2.71906-9.188-2.11682-13.644,1.90672-7.76817,7.01434-9.62733,16.519-10.80316,26.2258-.51313,4.23611-.47157,8.53726-.749,12.80452-.56589,8.70366-4.71758,13.65935-13.34835,14.36226-37.6305,3.06471-73.2911-1.41312-105.62094-23.76525-21.50049-14.86495-38.92544-33.089-54.41894-53.7646-33.092-44.16021-58.589-92.56174-80.78467-142.856C1.17677,26.63969.57952,25.38933,0,24.13111Z" style="fill:#fff"/></g></g></svg>