<?xml version="1.0" encoding="UTF-8"?>
<svg xmlns="http://www.w3.org/2000/svg" viewBox="0 0 25.60003 18"><g id="Слой_2" data-name="Слой 2"><g id="Слой_1-2" data-name="Слой 1"><path d="M25.0651,2.81639a3.21666,3.21666,0,0,0-2.26332-2.278C20.80538,0,12.8,0,12.8,0S4.7947,0,2.79825.53841a3.21674,3.21674,0,0,0-2.26331,2.278A33.74385,33.74385,0,0,0,0,9.01819,33.74376,33.74376,0,0,0,.53494,15.22a3.16873,3.16873,0,0,0,2.26331,2.24161C4.7947,18,12.8,18,12.8,18s8.00531,0,10.00176-.53841A3.16876,3.16876,0,0,0,25.0651,15.22,33.74438,33.74438,0,0,0,25.6,9.01819,33.74447,33.74447,0,0,0,25.0651,2.81639ZM10.18181,12.82458V5.2118L16.8727,9.01828l-6.69089,3.8063Z" style="fill:#fff"/></g></g></svg>