<svg xmlns="http://www.w3.org/2000/svg" viewBox="0 0 250 70.997"><g id="Слой_2" data-name="Слой 2"><g id="Слой_1-2" data-name="Слой 1"><rect width="250" height="70.997"/><path d="M171.26457,50.49128c-.01137-.16879-.02337-.27624-.02519-.38387-.06571-3.89564-.0329-25.60118.04263-26.1699a2.54517,2.54517,0,0,1,.25937-.03973c.12648-.00732.25365-.00277.38054-.00277q15.29685-.00007,30.5937.00115a2.06285,2.06285,0,0,1,.63327.03977,1.64512,1.64512,0,0,1,.04408.26837q.00456,1.92549.00119,3.851c-.0001.09274-.01633.18547-.02743.30324-.10488.012-.19429.028-.28417.03114-.14256.00505-.28543.00162-.42817.00162H175.79648a1.3946,1.3946,0,0,0-.04957.24743q-.00365,3.04275-.001,6.08551a2.04115,2.04115,0,0,0,.02453.21208,2.69945,2.69945,0,0,0,.27468.0386c.15835.00638.31712.0025.47572.0025q10.61026.00006,21.22052.00136a1.84032,1.84032,0,0,1,.6056.0369.60424.60424,0,0,1,.044.14807q.00321,2.068.00027,4.136a.66422.66422,0,0,1-.042.152,1.78623,1.78623,0,0,1-.22449.03568c-.15839.006-.31713.003-.47573.003q-10.61026.00009-21.22052.00031c-.20469,0-.40939.00374-.62837.00587a1.32024,1.32024,0,0,0-.05278.248q-.00355,3.019-.00047,6.038a1.27559,1.27559,0,0,0,.02524.16644,1.94471,1.94471,0,0,0,.25961.04641c.15821.008.31709.00282.47569.00282q13.03683,0,26.07366.00127a1.81328,1.81328,0,0,1,.56994.03489.97269.97269,0,0,1,.03946.18983q.00086,2.04414-.005,4.08829a.54247.54247,0,0,1-.04685.14446,1.59544,1.59544,0,0,1-.23033.0329C192.37862,50.49135,181.84906,50.49128,171.26457,50.49128Z" style="fill:#fff"/><path d="M105.09486,50.49411q-4.543,0-9.08608.00106a8.22741,8.22741,0,0,1-2.80808-.41544,7.19,7.19,0,0,1-4.82715-5.3688,7.93968,7.93968,0,0,1-.20539-1.88528c.00079-3.75524-.01528-7.51058.00536-11.26571a7.67809,7.67809,0,0,1,4.99678-7.18823,7.18754,7.18754,0,0,1,2.225-.45724c.20591-.00831.412-.01713.618-.01716q9.0861-.00139,18.17218-.00131a8.77118,8.77118,0,0,1,2.44313.315,7.50091,7.50091,0,0,1,5.25736,5.834,9.83494,9.83494,0,0,1,.14861,1.70189q.00371,5.46649-.00092,10.933a8.64569,8.64569,0,0,1-.41028,2.80891,7.00535,7.00535,0,0,1-5.225,4.77685,9.01758,9.01758,0,0,1-2.21751.229Q109.63792,50.49291,105.09486,50.49411Zm-.01139-4.49447q4.54173,0,9.08346.00011a5.171,5.171,0,0,0,1.13379-.10049,2.579,2.579,0,0,0,2.09963-2.07293,5.72057,5.72057,0,0,0,.10909-1.3225q.00012-5.2986-.00063-10.5972c-.00006-.22165.00024-.44408-.01671-.66484a2.9602,2.9602,0,0,0-2.45568-2.76457,5.54855,5.54855,0,0,0-1.03883-.081q-8.89325-.007-17.78647-.00308c-.17435,0-.34922-.0035-.52294.00812a3.12974,3.12974,0,0,0-1.79322.67812,3.22316,3.22316,0,0,0-1.22543,2.662q.00294,5.48868.00479,10.97736a5.68952,5.68952,0,0,0,.09238.99134,2.58822,2.58822,0,0,0,2.14665,2.19319,5.61322,5.61322,0,0,0,1.18177.09653Q100.5893,45.99968,105.08347,45.99964Z" style="fill:#fff"/><path d="M159.02828,45.546a4.04622,4.04622,0,0,0,.02469-.71867c.005-.23761.00109-.47542.00109-.71314V25.38176c0-.23772-.00131-.47545.00037-.71316.00167-.23483.00637-.46963.00991-.7173a.99646.99646,0,0,1,.20214-.04889q2.02213-.00452,4.04427-.00248a1.5127,1.5127,0,0,1,.20579.0307c.01438.09407.03525.18375.04025.2743.007.12642.00227.25348.00227.38026q0,12.623-.00106,25.246a2.26638,2.26638,0,0,1-.036.62958c-.13573.01182-.25814.03165-.38058.03178-1.87151.002-3.743-.00445-5.61448.00766a.8912.8912,0,0,1-.66146-.29687q-6.30245-5.9687-12.61219-11.92968-4.78679-4.52565-9.57447-9.05034a1.94493,1.94493,0,0,0-.42607-.35212,1.825,1.825,0,0,0-.03506.21266c-.00431.15837-.003.31692-.003.47539q-.00014,10.12694-.00108,20.25387a2.428,2.428,0,0,1-.034.6309,1.20241,1.20241,0,0,1-.22857.04594q-1.99837.00406-3.99674.00073a1.54281,1.54281,0,0,1-.208-.03081,2.23113,2.23113,0,0,1-.05022-.26786c-.00878-.12619-.00289-.25342-.00289-.3802q0-12.623.00112-25.246a2.07368,2.07368,0,0,1,.03932-.62893,2.83,2.83,0,0,1,.32766-.03839c1.88737-.00235,3.77478.0043,5.66206-.00858a.83371.83371,0,0,1,.61579.29157q2.74439,2.60117,5.49313,5.19774,8.38,7.92516,16.762,15.84824A.89141.89141,0,0,0,159.02828,45.546Z" style="fill:#fff"/><path d="M36.04746,23.99372l.04259-.09968h.42172q2.33124,0,4.66249.0001c.09514,0,.19029.00194.28543.00212a.39508.39508,0,0,1,.29656.12656c.088.09116.18157.177.27253.26536q4.86135,4.72159,9.724,9.44189a1.103,1.103,0,0,0,.42281.33459c.11974-.11478.24523-.23373.36926-.35417q4.8789-4.73766,9.75873-9.47435c.38488-.37326.24085-.341.82726-.34158q2.28366-.00234,4.56733.00075a1.0294,1.0294,0,0,1,.49647.05962,8.00255,8.00255,0,0,1-.60623.63462c-.19954.204-.40319.40389-.605.60558q-.286.28574-.57181.57157c-.20139.20215-.40171.40535-.60309.60751s-.40347.40362-.60529.60535-.40368.4034-.60553.6051l-.60556.60508-.60555.60509-.5719.57147-.60555.60508-.60556.60509-.60554.60509-.60556.60508-.5719.57148-.60555.60508-.60555.60509-.60555.60509-.60555.60508-.60555.60508-.57191.57148c-.20184.2017-.4071.40013-.60456.606a5.246,5.246,0,0,0-.60553.64553q3.32558,3.30867,6.64121,6.60775c2.19895,2.189,4.40228,4.37359,6.61612,6.58633a.47788.47788,0,0,1-.38336.08923q-1.97442.00411-3.94885.0018c-.333,0-.66631-.00808-.999.00247a.63721.63721,0,0,1-.50291-.21129c-.36925-.37035-.752-.72726-1.12839-1.0905q-4.39741-4.24357-8.79475-8.48723c-.11331-.10932-.231-.21406-.34551-.31983a1.107,1.107,0,0,0-.41292.33116q-4.8609,4.68785-9.71941,9.37816c-.47281.45582-.27795.3945-.99631.39609q-2.23608.00492-4.47218-.00022a1.08968,1.08968,0,0,1-.4422-.03381.30265.30265,0,0,1-.01372-.07542.10438.10438,0,0,1,.02366-.04071c.01427-.018.02924-.03542.04439-.0527.01249-.01425.03365-.03691.047-.05036l.07042-.0706q.25229-.25214.50464-.50422,6.13644-6.1042,12.273-12.20827c.02248-.02236.04558-.04417.06687-.06763s.04114-.04807.06042-.07311c.00955-.0124.01638-.02689.04289-.07146-.08427-.095-.17106-.20336-.26846-.30113q-1.47682-1.48247-2.95673-2.96188-4.79184-4.7919-9.584-9.5835C36.30148,24.26448,36.17575,24.12783,36.04746,23.99372Z" style="fill:#fff"/><path d="M78.73482,36.27933c.06884.40308.08116,3.92707.01919,4.46405a.94754.94754,0,0,1-.20913.04614q-2.16123.00429-4.32248.00092a1.54265,1.54265,0,0,1-.20483-.03,9.41438,9.41438,0,0,1-.03863-1.4634c-.01068-.50606-.00625-1.01256-.00127-1.5188.00478-.48639-.02248-.97412.01513-1.42884a.58868.58868,0,0,1,.068-.06262.09722.09722,0,0,1,.04489-.01181q2.16074-.00837,4.32147-.01486C78.52119,36.25981,78.61521,36.27152,78.73482,36.27933Z" style="fill:#fff"/>
<circle cx="210.17141" cy="24.27184" r="3.78115" style="fill:#fff"/><path d="M212.23306,26.325a.63709.63709,0,0,1-.03613.21.649.649,0,0,1-.11622.18164.57455.57455,0,0,1-.18164.13086.48388.48388,0,0,1-.21679.0498.6302.6302,0,0,1-.22461-.043.63863.63863,0,0,1-.21-.15234L209.5729,24.658h-.01465v1.66016a.55919.55919,0,1,1-1.11621,0V22.09941a.58391.58391,0,0,1,.14551-.41992.54848.54848,0,0,1,.42773-.15918H210.32a2.06933,2.06933,0,0,1,1.35449.40527,1.54626,1.54626,0,0,1,.49317,1.27637,1.302,1.302,0,0,1-.1084.543,1.20856,1.20856,0,0,1-.29.41308,1.70642,1.70642,0,0,1-.43457.29,2.24757,2.24757,0,0,1-.53711.15235l1.29,1.39843A.48557.48557,0,0,1,212.23306,26.325Zm-1.21778-3.123a.61447.61447,0,0,0-.18847-.48633.75956.75956,0,0,0-.50684-.166h-.76172v1.31153H210.32a.73453.73453,0,0,0,.50684-.17383A.62765.62765,0,0,0,211.01528,23.202Z"/></g></g></svg>